# xmcd
#
# Track frame offsets: 
#        150
#        21250
#        32982
#        47537
#        65777
#        96212
#        113997
#        134927
#        150767
#        169467
#        181690
#        207615
#        219700
#
# Disc length: 3105 seconds
#
# Revision: 4
# Processed by: cddbd v1.5.2PL0 Copyright (c) Steve Scherf et al.
# Submitted via: ExactAudioCopy v0.99pb5
#
DISCID=c40c1f0d
DTITLE=Taj Mahal - Senor Blues
DYEAR=1900
DGENRE=Blues
TTITLE0=Queen Bee
TTITLE1=Think
TTITLE2=Irresistible You
TTITLE3=Having A Real Bad Day
TTITLE4=Senor Blues
TTITLE5=Sophisticated Mama
TTITLE6=Oh Lord, Things Are Gettin' Crazy Up In Here
TTITLE7=I Miss You Baby
TTITLE8=You Rascal You
TTITLE9=Mind Your Business
TTITLE10=21st Century Gypsy Singin' Lover Man
TTITLE11=At Last (I Found A Love)
TTITLE12=Mr. Pitiful
EXTD=
EXTT0=
EXTT1=
EXTT2=
EXTT3=
EXTT4=
EXTT5=
EXTT6=
EXTT7=
EXTT8=
EXTT9=
EXTT10=
EXTT11=
EXTT12=
PLAYORDER=
